<?xml version="1.0" standalone="no"?>
<!DOCTYPE svg PUBLIC "-//W3C//DTD SVG 20010904//EN"
 "http://www.w3.org/TR/2001/REC-SVG-20010904/DTD/svg10.dtd">
<svg version="1.0" xmlns="http://www.w3.org/2000/svg"
 width="900.000000pt" height="400.000000pt" viewBox="0 0 900.000000 400.000000"
 preserveAspectRatio="xMidYMid meet">

<g transform="translate(0.000000,400.000000) scale(0.100000,-0.100000)"
fill="#000000" stroke="none">
<path d="M6190 3030 c0 -5 4 -10 9 -10 6 0 13 5 16 10 3 6 -1 10 -9 10 -9 0
-16 -4 -16 -10z"/>
<path d="M8425 3030 c-3 -5 -2 -10 4 -10 5 0 13 5 16 10 3 6 2 10 -4 10 -5 0
-13 -4 -16 -10z"/>
<path d="M400 2110 l0 -920 232 -2 233 -3 43 -104 c23 -58 44 -106 45 -108 2
-1 23 47 48 107 l44 110 1716 0 1717 0 4 70 c3 52 9 75 24 92 28 32 64 96 64
115 0 21 -78 93 -94 87 -7 -3 -19 2 -26 11 -10 12 -10 18 0 30 7 9 9 26 5 45
-5 22 -1 39 14 64 12 18 21 40 21 49 0 10 6 13 20 10 11 -3 20 -11 20 -18 0
-8 8 -11 19 -8 23 6 101 -61 101 -87 0 -10 -20 -31 -47 -49 -39 -26 -43 -31
-22 -31 31 1 90 31 99 50 4 8 15 38 23 65 9 28 30 90 47 138 22 62 33 112 36
170 2 45 15 131 28 192 21 94 23 113 11 135 -7 14 -16 44 -20 65 l-6 40 20
-24 21 -23 1 23 c1 13 0 32 -1 43 -3 29 10 67 20 61 6 -4 10 90 10 259 l0 266
-2235 0 -2235 0 0 -920z m1948 482 c6 -9 12 -26 12 -39 0 -32 -37 -32 -42 0
-2 12 -10 22 -18 22 -12 0 -16 -18 -18 -87 -3 -82 -1 -88 17 -88 14 0 21 8 23
27 2 17 10 29 21 31 13 3 17 -3 17 -28 0 -52 -16 -70 -60 -70 -29 0 -42 5 -50
19 -15 28 -13 194 3 213 24 31 70 31 95 0z m390 12 c26 -18 30 -64 6 -64 -9 0
-18 9 -21 20 -3 12 -11 19 -17 17 -23 -8 -17 -40 12 -71 66 -67 61 -138 -9
-144 -39 -3 -57 11 -61 48 -4 31 28 40 37 11 3 -12 13 -21 21 -21 25 0 15 39
-21 79 -43 47 -48 101 -13 125 12 9 27 16 33 16 6 0 21 -7 33 -16z m270 0 c28
-19 30 -64 3 -64 -10 0 -21 9 -24 20 -7 28 -27 25 -27 -5 0 -14 15 -41 35 -64
37 -41 47 -95 23 -119 -21 -21 -75 -15 -92 10 -22 32 -20 58 4 58 13 0 20 -7
20 -20 0 -13 7 -20 20 -20 29 0 25 31 -6 61 -14 13 -33 37 -41 52 -35 68 25
133 85 91z m-588 -99 l0 -105 34 0 c19 0 36 -5 38 -11 2 -7 12 41 22 105 l19
117 31 -3 31 -3 17 -100 c23 -134 22 -145 -2 -145 -13 0 -20 7 -20 20 0 15 -7
20 -24 20 -16 0 -27 -7 -31 -20 -6 -18 -15 -20 -81 -20 l-74 0 0 125 c0 118 1
125 20 125 19 0 20 -7 20 -105z m478 88 c-2 -12 -14 -19 -36 -21 -28 -3 -32
-7 -32 -33 0 -24 4 -29 25 -29 18 0 25 -5 25 -20 0 -15 -7 -20 -25 -20 -22 0
-25 -4 -25 -34 0 -32 3 -35 32 -38 22 -2 34 -9 36 -20 3 -15 -5 -18 -52 -18
l-56 0 0 125 0 125 56 0 c47 0 55 -3 52 -17z m532 -529 c25 -24 25 -27 25
-184 l0 -160 -28 -27 c-23 -23 -36 -28 -74 -27 -87 2 -108 56 -101 253 3 92 7
114 24 138 36 48 108 52 154 7z m307 3 c14 -14 25 -40 29 -70 l7 -47 -36 0
c-34 0 -36 2 -39 38 -3 32 -6 37 -28 37 l-25 0 0 -145 0 -145 25 0 c23 0 25 4
28 53 2 42 0 52 -13 52 -12 0 -16 8 -13 33 3 31 5 32 48 32 l45 0 0 -92 c0
-83 -3 -94 -24 -117 -13 -14 -36 -28 -51 -31 -35 -8 -95 16 -109 43 -15 27
-15 317 0 343 26 50 114 59 156 16z m-2487 -67 l0 -90 40 0 40 0 0 90 0 90 35
0 35 0 0 -210 0 -210 -35 0 -35 0 0 90 0 90 -40 0 -40 0 0 -90 0 -90 -35 0
-35 0 0 210 0 210 35 0 35 0 0 -90z m449 -107 c17 -109 31 -204 31 -210 0 -8
-14 -13 -34 -13 -32 0 -35 3 -38 33 -3 30 -6 32 -45 35 -41 3 -42 2 -45 -30
-3 -29 -7 -33 -37 -36 -31 -3 -33 -1 -28 20 3 13 17 102 32 198 15 96 28 181
31 188 2 7 22 12 52 12 l49 0 32 -197z m331 167 c0 -28 -3 -30 -35 -30 l-35 0
0 -180 0 -180 -35 0 -35 0 0 180 0 180 -35 0 c-32 0 -35 2 -35 30 l0 30 105 0
105 0 0 -30z m170 -60 l0 -90 35 0 35 0 0 90 0 90 35 0 35 0 0 -210 0 -210
-35 0 -35 0 0 90 0 90 -35 0 -35 0 0 -90 0 -90 -35 0 -35 0 0 210 0 210 35 0
35 0 0 -90z m439 -107 c17 -109 31 -204 31 -210 0 -8 -14 -13 -34 -13 -32 0
-35 3 -38 33 -3 30 -6 32 -45 35 -41 3 -42 2 -45 -30 -3 -29 -7 -33 -37 -36
-31 -3 -33 -1 -28 20 3 13 17 102 32 198 15 96 28 181 31 188 2 7 22 12 52 12
l49 0 32 -197z m380 115 c12 -46 23 -87 25 -93 3 -10 46 143 46 163 0 7 15 12
35 12 19 0 35 -1 35 -3 0 -2 -18 -64 -40 -137 -31 -103 -40 -150 -40 -207 l0
-73 -35 0 -35 0 0 68 c0 50 -11 103 -40 202 -22 74 -40 138 -40 143 0 4 15 7
34 7 l34 0 21 -82z m1016 60 c3 -13 16 -95 30 -183 14 -88 28 -172 31 -187 5
-26 4 -28 -30 -28 -32 0 -36 3 -42 35 -6 33 -9 35 -45 35 -36 0 -39 -2 -45
-35 -5 -30 -10 -35 -35 -35 -36 0 -36 -10 1 220 16 102 30 188 30 193 0 4 22
7 50 7 43 0 50 -3 55 -22z"/>
<path d="M2556 2519 c-2 -8 -6 -29 -9 -46 -3 -26 0 -33 14 -33 14 0 16 7 12
43 -6 47 -10 56 -17 36z"/>
<path d="M3326 2015 c-9 -25 -7 -258 3 -273 4 -8 19 -12 32 -10 l24 3 0 145 0
145 -26 3 c-17 2 -29 -3 -33 -13z"/>
<path d="M1607 1963 c-3 -18 -9 -62 -13 -98 l-7 -65 27 0 c30 0 31 6 13 120
-11 66 -14 71 -20 43z"/>
<path d="M2547 1963 c-3 -18 -9 -62 -13 -98 l-7 -65 27 0 c30 0 31 6 13 120
-11 66 -14 71 -20 43z"/>
<path d="M3966 1929 c-3 -30 -9 -71 -12 -91 -7 -37 -6 -38 25 -38 30 0 32 2
27 28 -3 15 -8 50 -12 77 -10 75 -20 84 -28 24z"/>
<path d="M5611 2996 c-7 -9 -11 -41 -9 -83 3 -66 4 -68 30 -71 22 -3 30 2 38
23 13 34 13 35 -5 35 -9 0 -15 -9 -15 -21 0 -12 -5 -19 -12 -17 -17 6 -23 107
-8 122 8 8 12 4 16 -12 6 -22 19 -29 27 -14 3 4 1 17 -4 30 -9 25 -40 29 -58
8z"/>
<path d="M5701 2996 c-19 -23 -10 -136 12 -150 33 -21 52 4 55 73 3 66 -7 91
-38 91 -10 0 -23 -6 -29 -14z m39 -71 c0 -37 -4 -65 -10 -65 -6 0 -10 28 -10
65 0 37 4 65 10 65 6 0 10 -28 10 -65z"/>
<path d="M5790 2925 c0 -50 4 -85 10 -85 6 0 10 26 11 58 l1 57 15 -57 c9 -36
21 -58 29 -58 11 0 14 19 14 85 0 89 -19 123 -21 38 l-1 -48 -15 48 c-8 27
-20 47 -29 47 -11 0 -14 -18 -14 -85z"/>
<path d="M5890 2925 l0 -85 35 0 c19 0 35 5 35 10 0 6 -9 10 -20 10 -15 0 -20
7 -20 25 0 16 6 25 15 25 8 0 15 7 15 15 0 8 -7 15 -15 15 -8 0 -15 9 -15 20
0 13 7 20 20 20 11 0 20 7 20 15 0 10 -11 15 -35 15 l-35 0 0 -85z"/>
<path d="M5991 2996 c-7 -9 -11 -41 -9 -83 3 -66 4 -68 30 -71 22 -3 30 2 38
23 13 34 13 35 -5 35 -9 0 -15 -9 -15 -21 0 -12 -5 -19 -12 -17 -17 6 -23 107
-8 122 8 8 12 4 16 -12 6 -22 19 -29 27 -14 3 4 1 17 -4 30 -9 25 -40 29 -58
8z"/>
<path d="M6070 2995 c0 -8 5 -15 10 -15 6 0 10 -30 10 -70 0 -56 3 -70 15 -70
12 0 15 14 15 69 0 53 4 70 16 75 25 10 6 26 -32 26 -24 0 -34 -5 -34 -15z"/>
<path d="M6175 2988 c-11 -49 -23 -143 -18 -148 2 -3 10 3 17 13 7 9 17 17 21
17 4 0 14 -8 21 -17 22 -31 25 -8 12 73 -10 59 -18 80 -30 82 -11 2 -19 -5
-23 -20z m34 -85 c1 -7 -6 -13 -15 -13 -12 0 -15 6 -10 23 3 12 6 29 7 37 1
15 16 -24 18 -47z"/>
<path d="M6301 2996 c-19 -23 -10 -136 12 -150 12 -8 22 -8 35 0 23 15 29 54
8 54 -9 0 -16 -8 -16 -20 0 -11 -4 -20 -10 -20 -6 0 -10 28 -10 65 0 63 12 86
23 45 5 -21 27 -28 27 -9 0 41 -45 64 -69 35z"/>
<path d="M6390 2991 c-14 -28 -13 -114 3 -135 8 -11 23 -17 38 -14 22 3 24 7
27 71 3 73 -7 97 -39 97 -10 0 -23 -9 -29 -19z m48 -71 c-4 -78 -28 -80 -28
-2 0 32 3 62 7 66 15 14 24 -14 21 -64z"/>
<path d="M6480 2926 c0 -51 4 -86 10 -86 6 0 10 26 11 58 l1 57 17 -54 c26
-86 41 -77 41 23 0 51 -4 86 -10 86 -5 0 -10 -21 -11 -47 l-1 -48 -12 45 c-7
28 -18 46 -29 48 -15 3 -17 -7 -17 -82z"/>
<path d="M6610 3000 c0 -6 7 -13 15 -16 11 -5 15 -23 15 -75 0 -55 3 -69 15
-69 12 0 15 14 15 70 0 40 4 70 10 70 6 0 10 7 10 15 0 11 -11 15 -40 15 -22
0 -40 -5 -40 -10z"/>
<path d="M6707 3003 c-10 -10 -8 -108 3 -137 11 -30 54 -36 64 -10 10 25 7
154 -4 154 -5 0 -10 -32 -12 -72 -2 -46 -7 -73 -15 -76 -10 -3 -13 16 -13 72
0 70 -6 87 -23 69z"/>
<path d="M6852 3001 c-9 -5 -12 -29 -10 -82 l3 -74 30 0 c25 0 30 4 33 28 4
32 -13 37 -21 6 -10 -38 -27 -9 -27 46 0 55 17 84 27 46 7 -26 23 -28 23 -3 0
33 -30 51 -58 33z"/>
<path d="M6930 2941 c0 -38 3 -76 6 -85 9 -23 51 -20 64 4 15 27 9 142 -7 148
-10 3 -13 -16 -13 -73 0 -57 -3 -76 -12 -73 -9 3 -14 30 -16 76 -4 92 -22 94
-22 3z"/>
<path d="M7030 2926 l0 -86 35 0 c19 0 35 5 35 10 0 6 -11 10 -25 10 -20 0
-25 5 -25 25 0 15 6 25 14 25 24 0 30 21 7 27 -29 7 -27 41 2 45 33 5 27 23
-10 26 l-33 3 0 -85z"/>
<path d="M7120 2925 c0 -50 4 -85 10 -85 6 0 10 16 10 36 0 45 24 42 28 -4 6
-63 21 -30 20 46 0 80 -6 92 -45 92 -22 0 -23 -3 -23 -85z m48 33 c-5 -32 -28
-35 -28 -4 0 17 5 26 16 26 10 0 14 -7 12 -22z"/>
<path d="M7210 2925 c0 -69 3 -85 15 -85 10 0 15 10 15 30 0 17 4 30 9 30 18
0 41 31 41 55 0 30 -25 55 -56 55 -24 0 -24 -2 -24 -85z m50 30 c0 -14 -4 -25
-10 -25 -5 0 -10 11 -10 25 0 14 5 25 10 25 6 0 10 -11 10 -25z"/>
<path d="M7311 2996 c-7 -9 -11 -41 -9 -83 3 -64 5 -68 27 -71 15 -3 30 3 38
14 16 21 17 107 3 135 -12 22 -43 25 -59 5z m39 -77 c0 -44 -3 -60 -12 -57
-14 5 -23 90 -14 115 12 31 26 -1 26 -58z"/>
<path d="M7434 2983 c4 -16 12 -54 19 -85 6 -32 14 -58 17 -58 3 0 11 26 17
58 7 31 15 69 19 85 4 16 2 27 -4 27 -6 0 -14 -16 -18 -35 -7 -40 -19 -38 -27
5 -4 16 -12 30 -18 30 -7 0 -9 -10 -5 -27z"/>
<path d="M7570 2924 l0 -85 33 3 32 3 3 74 c3 79 -3 91 -45 91 -22 0 -23 -3
-23 -86z m48 -1 c-4 -81 -28 -85 -28 -4 0 48 3 61 15 61 13 0 15 -11 13 -57z"/>
<path d="M7660 2925 l0 -85 35 0 c19 0 35 5 35 10 0 6 -9 10 -20 10 -15 0 -20
7 -20 25 0 16 6 25 15 25 8 0 15 7 15 15 0 8 -7 15 -15 15 -8 0 -15 9 -15 20
0 13 7 20 20 20 11 0 20 7 20 15 0 10 -11 15 -35 15 l-35 0 0 -85z"/>
<path d="M7762 2998 c-19 -19 -14 -53 13 -78 25 -23 34 -60 15 -60 -5 0 -13 8
-19 17 -12 23 -25 11 -16 -16 9 -28 51 -28 66 0 9 18 6 28 -21 66 -23 32 -29
48 -22 55 8 8 13 7 18 -5 9 -25 26 -21 22 6 -3 25 -36 35 -56 15z"/>
<path d="M7851 2941 c-14 -85 -14 -101 -1 -101 6 0 10 7 10 15 0 8 9 15 20 15
11 0 20 -7 20 -15 0 -8 7 -15 15 -15 8 0 13 6 10 13 -2 6 -9 45 -15 85 -10 58
-15 72 -29 72 -14 0 -20 -14 -30 -69z m39 -21 c0 -16 -4 -30 -10 -30 -5 0 -10
14 -10 30 0 17 5 30 10 30 6 0 10 -13 10 -30z"/>
<path d="M7940 2925 c0 -69 3 -85 15 -85 10 0 15 11 15 35 0 19 5 35 10 35 6
0 10 -16 10 -35 0 -24 5 -35 15 -35 18 0 21 60 4 77 -8 8 -8 13 0 17 15 9 14
49 -1 64 -7 7 -25 12 -40 12 l-28 0 0 -85z m50 30 c0 -14 -4 -25 -10 -25 -5 0
-10 11 -10 25 0 14 5 25 10 25 6 0 10 -11 10 -25z"/>
<path d="M8040 2925 c0 -50 4 -85 10 -85 6 0 10 16 10 36 0 45 24 42 28 -4 6
-63 21 -30 20 46 0 80 -6 92 -45 92 -22 0 -23 -3 -23 -85z m48 33 c-5 -32 -28
-35 -28 -4 0 17 5 26 16 26 10 0 14 -7 12 -22z"/>
<path d="M8141 2996 c-19 -23 -10 -136 12 -150 33 -21 52 4 55 73 3 66 -7 91
-38 91 -10 0 -23 -6 -29 -14z m39 -71 c0 -37 -4 -65 -10 -65 -6 0 -10 28 -10
65 0 37 4 65 10 65 6 0 10 -28 10 -65z"/>
<path d="M8230 2925 l0 -85 35 0 c39 0 48 17 13 22 -21 3 -23 9 -26 76 -4 101
-22 91 -22 -13z"/>
<path d="M8310 2925 l0 -85 50 0 c38 0 50 4 50 15 0 8 9 15 20 15 11 0 20 -7
20 -15 0 -8 5 -15 10 -15 13 0 13 16 -1 101 -10 55 -16 69 -29 69 -14 0 -20
-14 -29 -63 -6 -35 -11 -71 -11 -79 0 -13 -6 -15 -27 -9 -27 7 -28 10 -31 79
-4 101 -22 90 -22 -13z m129 -17 c1 -10 -3 -18 -9 -18 -5 0 -10 17 -9 38 0 30
2 33 9 17 5 -11 9 -28 9 -37z"/>
<path d="M5520 2595 c0 -50 4 -85 10 -85 6 0 11 19 11 43 l1 42 8 -38 c12 -65
26 -64 39 4 l9 44 1 -47 c2 -86 21 -52 21 37 0 68 -3 85 -15 85 -9 0 -16 -14
-20 -37 -12 -72 -11 -70 -18 -53 -3 8 -8 32 -12 53 -4 23 -11 37 -20 37 -12 0
-15 -17 -15 -85z"/>
<path d="M5665 2668 c-4 -14 -25 -140 -25 -151 0 -4 5 -7 10 -7 6 0 10 7 10
15 0 8 9 15 20 15 11 0 20 -7 20 -15 0 -8 7 -15 16 -15 12 0 14 7 10 28 -3 15
-8 45 -12 67 -3 22 -8 48 -11 58 -5 20 -32 23 -38 5z m21 -106 c-13 -12 -17 8
-10 40 l9 33 3 -33 c2 -19 1 -36 -2 -40z"/>
<path d="M5744 2653 c4 -16 12 -54 19 -85 6 -32 14 -58 17 -58 3 0 11 26 17
58 7 31 15 69 19 85 4 16 2 27 -4 27 -6 0 -14 -16 -18 -35 -7 -40 -19 -38 -27
5 -4 16 -12 30 -18 30 -7 0 -9 -10 -5 -27z"/>
<path d="M5852 2671 c-9 -5 -12 -29 -10 -82 l3 -74 30 0 30 0 3 74 c3 73 -4
91 -33 91 -5 0 -16 -4 -23 -9z m36 -80 c-2 -28 -7 -52 -13 -54 -11 -2 -19 87
-10 111 11 31 26 -5 23 -57z"/>
<path d="M5930 2595 c0 -69 3 -85 15 -85 10 0 15 11 15 35 0 19 4 35 9 35 11
0 21 -25 21 -51 0 -10 4 -19 9 -19 13 0 12 142 -1 158 -6 6 -23 12 -39 12
l-29 0 0 -85z m54 46 c8 -12 -3 -41 -15 -41 -5 0 -9 11 -9 25 0 25 14 34 24
16z"/>
<path d="M6070 2595 l0 -85 35 0 c39 0 48 17 13 22 -31 4 -39 48 -9 48 12 0
21 6 21 15 0 8 -9 15 -20 15 -28 0 -27 38 2 42 38 5 33 28 -6 28 l-36 0 0 -85z"/>
<path d="M6160 2595 l0 -85 30 0 c17 0 30 5 30 10 0 6 -9 10 -20 10 -18 0 -20
7 -20 75 0 43 -4 75 -10 75 -6 0 -10 -35 -10 -85z"/>
<path d="M6255 2668 c-4 -14 -25 -140 -25 -151 0 -4 5 -7 10 -7 6 0 10 7 10
15 0 8 9 15 20 15 11 0 20 -7 20 -15 0 -8 7 -15 16 -15 12 0 14 7 10 28 -3 15
-8 45 -12 67 -3 22 -8 48 -11 58 -5 20 -32 23 -38 5z m21 -106 c-13 -12 -17 8
-10 40 l9 33 3 -33 c2 -19 1 -36 -2 -40z"/>
<path d="M6342 2668 c-19 -19 -14 -44 13 -76 25 -30 33 -62 15 -62 -5 0 -13 8
-19 17 -5 10 -13 14 -17 10 -11 -11 9 -41 30 -45 22 -5 46 16 46 38 0 10 -11
32 -25 48 -23 28 -33 62 -19 62 4 0 13 -8 20 -17 16 -22 32 -8 18 15 -14 21
-45 27 -62 10z"/>
<path d="M6420 2665 c0 -8 5 -15 10 -15 6 0 10 -30 10 -70 0 -56 3 -70 15 -70
12 0 15 14 15 69 0 53 4 70 16 75 25 10 6 26 -32 26 -24 0 -34 -5 -34 -15z"/>
<path d="M6510 2596 c0 -71 3 -86 15 -86 13 0 15 14 13 82 -2 54 -7 83 -15 86
-10 3 -13 -18 -13 -82z"/>
<path d="M6560 2661 c-5 -11 -10 -41 -10 -66 0 -25 5 -55 10 -66 19 -34 70
-18 70 23 0 24 -16 23 -23 -2 -11 -42 -27 -19 -27 39 0 60 16 92 27 52 7 -26
23 -28 23 -3 0 41 -51 57 -70 23z"/>
<path d="M6650 2595 c0 -50 4 -85 10 -85 6 0 10 35 10 85 0 50 -4 85 -10 85
-6 0 -10 -35 -10 -85z"/>
<path d="M6690 2595 c0 -83 1 -85 24 -85 51 0 56 8 56 79 0 74 -10 91 -52 91
l-28 0 0 -85z m58 -2 c-4 -81 -28 -85 -28 -4 0 48 3 61 15 61 13 0 15 -11 13
-57z"/>
<path d="M6800 2608 c-6 -40 -13 -79 -15 -85 -3 -7 2 -13 10 -13 8 0 15 7 15
15 0 8 9 15 20 15 11 0 20 -7 20 -15 0 -8 5 -15 10 -15 13 0 13 16 -1 101 -10
55 -16 69 -30 69 -14 0 -19 -14 -29 -72z m39 -30 c1 -10 -3 -18 -9 -18 -5 0
-10 17 -9 38 0 30 2 33 9 17 5 -11 9 -28 9 -37z"/>
<path d="M6890 2595 l0 -85 30 0 c37 0 50 23 50 89 0 56 -17 81 -56 81 -24 0
-24 -2 -24 -85z m48 0 c-2 -30 -7 -55 -13 -55 -5 0 -11 25 -13 55 -2 45 0 55
13 55 13 0 15 -10 13 -55z"/>
<path d="M7070 2595 l0 -85 35 0 c39 0 48 17 13 22 -31 4 -39 48 -9 48 12 0
21 6 21 15 0 8 -9 15 -20 15 -28 0 -27 38 2 42 38 5 33 28 -6 28 l-36 0 0 -85z"/>
<path d="M7173 2673 c-9 -3 -13 -29 -13 -79 0 -51 4 -76 13 -78 6 -3 23 -7 37
-10 l25 -5 -4 82 c-4 91 -15 108 -58 90z m35 -82 c-2 -28 -7 -52 -13 -54 -11
-2 -19 87 -10 111 11 31 26 -5 23 -57z"/>
<path d="M7252 2605 c2 -61 7 -80 21 -89 12 -8 22 -8 35 0 13 9 18 28 20 88 2
46 -1 76 -7 76 -6 0 -11 -32 -13 -72 -4 -99 -26 -105 -30 -7 -2 48 -7 74 -16
77 -10 3 -12 -14 -10 -73z"/>
<path d="M7350 2595 c0 -50 4 -85 10 -85 6 0 10 35 10 85 0 50 -4 85 -10 85
-6 0 -10 -35 -10 -85z"/>
<path d="M7390 2595 l0 -85 35 0 c19 0 35 5 35 10 0 6 -9 10 -20 10 -18 0 -20
7 -20 75 0 60 -3 75 -15 75 -12 0 -15 -16 -15 -85z"/>
<path d="M7480 2595 c0 -50 4 -85 10 -85 6 0 10 35 10 85 0 50 -4 85 -10 85
-6 0 -10 -35 -10 -85z"/>
<path d="M7520 2595 l0 -85 29 0 c40 0 50 17 49 85 -1 70 -10 85 -49 85 l-29
0 0 -85z m50 35 c0 -11 -4 -20 -10 -20 -5 0 -10 9 -10 20 0 11 5 20 10 20 6 0
10 -9 10 -20z m4 -55 c6 -18 -2 -45 -15 -45 -5 0 -9 14 -9 30 0 32 14 40 24
15z"/>
<path d="M7620 2595 c0 -50 4 -85 10 -85 6 0 10 16 10 36 0 45 24 42 28 -4 2
-21 9 -32 19 -32 13 0 14 7 9 38 -4 20 -7 43 -7 50 0 6 1 24 2 38 2 29 -14 44
-48 44 -22 0 -23 -3 -23 -85z m48 33 c-5 -32 -28 -35 -28 -4 0 17 5 26 16 26
10 0 14 -7 12 -22z"/>
<path d="M7710 2595 c0 -69 3 -85 15 -85 12 0 15 16 15 85 0 69 -3 85 -15 85
-12 0 -15 -16 -15 -85z"/>
<path d="M7771 2666 c-7 -9 -11 -41 -9 -83 3 -64 5 -68 27 -71 15 -3 30 3 38
14 16 21 17 107 3 135 -12 22 -43 25 -59 5z m39 -77 c0 -44 -3 -60 -12 -57
-14 5 -23 90 -14 115 12 31 26 -1 26 -58z"/>
<path d="M7894 2653 c4 -16 12 -54 19 -85 6 -32 14 -58 17 -58 3 0 11 26 17
58 7 31 15 69 19 85 4 16 2 27 -4 27 -6 0 -14 -16 -18 -35 -7 -40 -19 -38 -27
5 -4 16 -12 30 -18 30 -7 0 -9 -10 -5 -27z"/>
<path d="M8020 2595 c0 -69 3 -85 15 -85 10 0 15 11 15 35 0 24 5 35 15 35 8
0 15 5 15 10 0 6 -7 10 -15 10 -9 0 -15 9 -15 25 0 18 5 25 20 25 11 0 20 7
20 15 0 10 -11 15 -35 15 l-35 0 0 -85z"/>
<path d="M8107 2673 c-10 -10 -8 -108 3 -137 11 -30 54 -36 64 -10 10 25 7
154 -4 154 -5 0 -10 -32 -12 -72 -2 -46 -7 -73 -15 -76 -10 -3 -13 16 -13 72
0 70 -6 87 -23 69z"/>
<path d="M8200 2595 l0 -85 35 0 c19 0 35 5 35 10 0 6 -9 10 -20 10 -15 0 -20
7 -20 25 0 16 6 25 15 25 8 0 15 7 15 15 0 8 -7 15 -15 15 -8 0 -15 9 -15 20
0 13 7 20 20 20 11 0 20 7 20 15 0 10 -11 15 -35 15 l-35 0 0 -85z"/>
<path d="M8290 2595 c0 -69 3 -85 15 -85 10 0 15 11 15 35 0 19 5 35 10 35 6
0 10 -16 10 -35 0 -24 5 -35 15 -35 18 0 21 60 4 77 -8 8 -8 13 0 17 15 9 14
49 -1 64 -7 7 -25 12 -40 12 l-28 0 0 -85z m50 30 c0 -14 -4 -25 -10 -25 -5 0
-10 11 -10 25 0 14 5 25 10 25 6 0 10 -11 10 -25z"/>
<path d="M8390 2665 c0 -8 9 -15 20 -15 25 0 25 2 -5 -66 -14 -31 -25 -60 -25
-65 0 -5 18 -9 40 -9 22 0 40 5 40 10 0 6 -11 10 -25 10 -14 0 -25 2 -25 5 0
2 11 30 25 61 33 76 32 84 -10 84 -24 0 -35 -5 -35 -15z"/>
<path d="M8495 2668 c-4 -14 -25 -140 -25 -151 0 -4 5 -7 10 -7 6 0 10 7 10
15 0 8 9 15 20 15 11 0 20 -7 20 -15 0 -8 7 -15 16 -15 12 0 14 7 10 28 -3 15
-8 45 -12 67 -3 22 -8 48 -11 58 -5 20 -32 23 -38 5z m21 -106 c-13 -12 -17 8
-10 40 l9 33 3 -33 c2 -19 1 -36 -2 -40z"/>
<path d="M6993 2511 c0 -11 5 -17 9 -15 11 7 10 34 -1 34 -6 0 -9 -9 -8 -19z"/>
<path d="M5691 2336 c-7 -9 -11 -41 -9 -83 3 -66 4 -68 30 -71 22 -3 30 2 38
23 13 34 13 35 -5 35 -9 0 -15 -9 -15 -21 0 -12 -5 -19 -12 -17 -17 6 -23 107
-8 122 8 8 12 4 16 -12 6 -22 19 -29 27 -14 3 4 1 17 -4 30 -9 25 -40 29 -58
8z"/>
<path d="M5781 2336 c-19 -23 -10 -136 12 -150 33 -21 52 4 55 73 3 66 -7 91
-38 91 -10 0 -23 -6 -29 -14z m39 -71 c0 -37 -4 -65 -10 -65 -6 0 -10 28 -10
65 0 37 4 65 10 65 6 0 10 -28 10 -65z"/>
<path d="M5870 2265 c0 -50 4 -85 10 -85 6 0 10 26 11 58 l1 57 15 -57 c9 -36
21 -58 29 -58 11 0 14 19 14 85 0 89 -19 123 -21 38 l-1 -48 -15 48 c-8 27
-20 47 -29 47 -11 0 -14 -18 -14 -85z"/>
<path d="M6010 2265 l0 -85 35 0 c39 0 48 17 13 22 -21 3 -23 9 -26 76 -4 101
-22 91 -22 -13z"/>
<path d="M6102 2341 c-9 -5 -12 -29 -10 -82 l3 -74 30 0 30 0 3 74 c3 73 -4
91 -33 91 -5 0 -16 -4 -23 -9z m36 -80 c-2 -28 -7 -52 -13 -54 -11 -2 -19 87
-10 111 11 31 26 -5 23 -57z"/>
<path d="M6192 2338 c-19 -19 -14 -53 13 -78 25 -23 34 -60 15 -60 -5 0 -13 8
-19 17 -12 23 -25 11 -16 -16 9 -28 51 -28 66 0 9 18 6 28 -21 66 -23 32 -29
48 -22 55 8 8 13 7 18 -5 9 -25 26 -21 22 6 -3 25 -36 35 -56 15z"/>
<path d="M6310 2265 l0 -85 35 0 c19 0 35 5 35 10 0 6 -9 10 -20 10 -15 0 -20
7 -20 25 0 16 6 25 15 25 8 0 15 7 15 15 0 8 -7 15 -15 15 -8 0 -15 9 -15 20
0 13 7 20 20 20 11 0 20 7 20 15 0 10 -11 15 -35 15 l-35 0 0 -85z"/>
<path d="M6417 2343 c-4 -3 -7 -37 -7 -74 0 -45 -4 -69 -12 -72 -7 -2 -9 -8
-5 -13 4 -4 16 -3 25 2 13 9 18 29 20 88 3 69 -3 88 -21 69z"/>
<path d="M6460 2265 l0 -85 35 0 c19 0 35 5 35 10 0 6 -9 10 -20 10 -15 0 -20
7 -20 25 0 16 6 25 15 25 8 0 15 7 15 15 0 8 -7 15 -15 15 -8 0 -15 9 -15 20
0 13 7 20 20 20 11 0 20 7 20 15 0 10 -11 15 -35 15 l-35 0 0 -85z"/>
<path d="M6550 2265 c0 -50 4 -85 10 -85 6 0 10 16 10 36 0 45 24 42 28 -4 2
-21 9 -32 19 -32 13 0 14 7 9 38 -4 20 -7 43 -7 50 0 6 1 24 2 38 2 29 -14 44
-48 44 -22 0 -23 -3 -23 -85z m48 33 c-5 -32 -28 -35 -28 -4 0 17 5 26 16 26
10 0 14 -7 12 -22z"/>
<path d="M6650 2331 c-5 -11 -10 -41 -10 -66 0 -25 5 -55 10 -66 19 -34 70
-18 70 23 0 24 -16 23 -23 -2 -11 -42 -27 -19 -27 39 0 60 16 92 27 52 7 -26
23 -28 23 -3 0 41 -51 57 -70 23z"/>
<path d="M6740 2265 c0 -50 4 -85 10 -85 6 0 10 35 10 85 0 50 -4 85 -10 85
-6 0 -10 -35 -10 -85z"/>
<path d="M6791 2336 c-19 -23 -10 -136 12 -150 12 -8 22 -8 35 0 23 15 29 54
8 54 -9 0 -16 -8 -16 -20 0 -11 -4 -20 -10 -20 -6 0 -10 28 -10 65 0 63 12 86
23 45 5 -21 27 -28 27 -9 0 41 -45 64 -69 35z"/>
<path d="M6880 2265 c0 -50 4 -85 10 -85 6 0 10 35 10 85 0 50 -4 85 -10 85
-6 0 -10 -35 -10 -85z"/>
<path d="M6931 2336 c-7 -9 -11 -41 -9 -83 3 -64 5 -68 27 -71 15 -3 30 3 38
14 16 21 17 107 3 135 -12 22 -43 25 -59 5z m39 -77 c0 -44 -3 -60 -12 -57
-14 5 -23 90 -14 115 12 31 26 -1 26 -58z"/>
<path d="M7022 2338 c-19 -19 -14 -44 13 -76 25 -30 33 -62 15 -62 -5 0 -13 8
-19 17 -5 10 -13 14 -17 10 -11 -11 9 -41 30 -45 22 -5 46 16 46 38 0 10 -11
32 -25 48 -23 28 -33 62 -19 62 4 0 13 -8 20 -17 16 -22 32 -8 18 15 -14 21
-45 27 -62 10z"/>
<path d="M7140 2265 c0 -69 3 -85 15 -85 10 0 15 10 15 28 0 21 7 32 25 40 19
9 25 19 25 45 0 40 -15 57 -52 57 l-28 0 0 -85z m50 30 c0 -14 -4 -25 -10 -25
-5 0 -10 11 -10 25 0 14 5 25 10 25 6 0 10 -11 10 -25z"/>
<path d="M7241 2336 c-19 -23 -10 -136 12 -150 33 -21 52 4 55 73 3 66 -7 91
-38 91 -10 0 -23 -6 -29 -14z m39 -71 c0 -37 -4 -65 -10 -65 -6 0 -10 28 -10
65 0 37 4 65 10 65 6 0 10 -28 10 -65z"/>
<path d="M7331 2328 c-9 -25 0 -50 31 -85 11 -12 17 -26 13 -32 -9 -16 -25
-13 -25 4 0 8 -7 15 -15 15 -18 0 -18 -5 -5 -31 13 -23 55 -25 64 -3 11 27 7
42 -20 73 -17 20 -24 37 -19 49 6 16 7 16 21 -2 17 -23 33 -12 18 12 -17 27
-53 27 -63 0z"/>
<path d="M7410 2335 c0 -8 7 -15 15 -15 12 0 15 -14 15 -70 0 -40 4 -70 10
-70 6 0 10 30 10 70 0 56 3 70 15 70 8 0 15 7 15 15 0 11 -11 15 -40 15 -29 0
-40 -4 -40 -15z"/>
<path d="M7507 2343 c-10 -10 -8 -108 3 -137 11 -30 54 -36 64 -10 10 25 7
154 -4 154 -5 0 -10 -32 -12 -72 -2 -46 -7 -73 -15 -76 -10 -3 -13 16 -13 72
0 70 -6 87 -23 69z"/>
<path d="M7600 2265 c0 -69 3 -85 15 -85 10 0 15 11 15 35 0 19 5 35 10 35 6
0 10 -16 10 -35 0 -24 5 -35 15 -35 18 0 21 60 4 77 -8 8 -8 13 0 17 15 9 14
49 -1 64 -7 7 -25 12 -40 12 l-28 0 0 -85z m50 30 c0 -14 -4 -25 -10 -25 -5 0
-10 11 -10 25 0 14 5 25 10 25 6 0 10 -11 10 -25z"/>
<path d="M7715 2338 c-4 -14 -25 -140 -25 -151 0 -4 5 -7 10 -7 6 0 10 7 10
15 0 8 9 15 20 15 11 0 20 -7 20 -15 0 -8 7 -15 16 -15 12 0 14 7 10 28 -3 15
-8 45 -12 67 -3 22 -8 48 -11 58 -5 20 -32 23 -38 5z m21 -106 c-13 -12 -17 8
-10 40 l9 33 3 -33 c2 -19 1 -36 -2 -40z"/>
<path d="M7790 2265 l0 -85 35 0 c19 0 35 5 35 10 0 6 -9 10 -20 10 -18 0 -20
7 -20 75 0 60 -3 75 -15 75 -12 0 -15 -16 -15 -85z"/>
<path d="M7880 2266 l0 -86 35 0 c19 0 35 5 35 10 0 6 -11 10 -25 10 -20 0
-25 5 -25 25 0 15 6 25 14 25 24 0 30 21 7 27 -29 7 -27 41 2 45 33 5 27 23
-10 26 l-33 3 0 -85z"/>
<path d="M7972 2338 c-19 -19 -14 -53 13 -78 25 -23 34 -60 15 -60 -5 0 -13 8
-19 17 -12 23 -25 11 -16 -16 9 -28 51 -28 66 0 9 18 6 28 -21 66 -23 32 -29
48 -22 55 8 8 13 7 18 -5 9 -25 26 -21 22 6 -3 25 -36 35 -56 15z"/>
<path d="M8096 2303 c8 -27 18 -65 21 -85 7 -44 23 -51 23 -10 0 16 7 52 16
81 8 29 13 56 9 59 -8 8 -25 -18 -25 -40 0 -33 -18 -27 -24 7 -4 20 -13 35
-21 35 -12 0 -12 -7 1 -47z"/>
<path d="M8220 2265 c0 -83 1 -85 24 -85 51 0 56 8 56 79 0 74 -10 91 -52 91
l-28 0 0 -85z m58 -2 c-4 -81 -28 -85 -28 -4 0 48 3 61 15 61 13 0 15 -11 13
-57z"/>
<path d="M8320 2265 l0 -85 35 0 c19 0 35 5 35 10 0 6 -9 10 -20 10 -15 0 -20
7 -20 25 0 16 6 25 15 25 8 0 15 7 15 15 0 8 -7 15 -15 15 -8 0 -15 9 -15 20
0 13 7 20 20 20 11 0 20 7 20 15 0 10 -11 15 -35 15 l-35 0 0 -85z"/>
<path d="M6675 2040 c-3 -5 -2 -10 4 -10 5 0 13 5 16 10 3 6 2 10 -4 10 -5 0
-13 -4 -16 -10z"/>
<path d="M7805 2040 c-3 -5 -2 -10 4 -10 5 0 13 5 16 10 3 6 2 10 -4 10 -5 0
-13 -4 -16 -10z"/>
<path d="M5900 1935 c0 -50 4 -85 10 -85 6 0 10 16 10 36 0 45 24 42 28 -4 6
-63 21 -30 20 46 0 80 -6 92 -45 92 -22 0 -23 -3 -23 -85z m48 33 c-5 -32 -28
-35 -28 -4 0 17 5 26 16 26 10 0 14 -7 12 -22z"/>
<path d="M5990 1935 l0 -85 35 0 c19 0 35 5 35 10 0 6 -9 10 -20 10 -15 0 -20
7 -20 25 0 16 6 25 15 25 8 0 15 7 15 15 0 8 -7 15 -15 15 -8 0 -15 9 -15 20
0 13 7 20 20 20 11 0 20 7 20 15 0 10 -11 15 -35 15 l-35 0 0 -85z"/>
<path d="M6093 2013 c-21 -8 -15 -53 12 -85 14 -16 25 -33 25 -38 0 -17 -20
-21 -26 -6 -9 24 -26 19 -22 -6 2 -18 10 -23 33 -23 25 0 30 4 33 28 2 18 -5
38 -22 58 -14 17 -26 34 -26 39 0 17 20 21 26 6 8 -22 24 -20 24 3 0 25 -27
37 -57 24z"/>
<path d="M6170 1935 c0 -69 3 -85 15 -85 10 0 15 10 15 30 0 17 4 30 9 30 18
0 41 31 41 55 0 30 -25 55 -56 55 -24 0 -24 -2 -24 -85z m50 30 c0 -14 -4 -25
-10 -25 -5 0 -10 11 -10 25 0 14 5 25 10 25 6 0 10 -11 10 -25z"/>
<path d="M6260 1936 c0 -71 3 -86 15 -86 13 0 15 14 13 82 -2 54 -7 83 -15 86
-10 3 -13 -18 -13 -82z"/>
<path d="M6310 1935 c0 -50 4 -85 10 -85 6 0 10 16 10 36 0 45 24 42 28 -4 2
-21 9 -32 19 -32 13 0 14 7 9 38 -4 20 -7 43 -7 50 0 6 1 24 2 38 2 29 -14 44
-48 44 -22 0 -23 -3 -23 -85z m48 33 c-5 -32 -28 -35 -28 -4 0 17 5 26 16 26
10 0 14 -7 12 -22z"/>
<path d="M6411 1951 c-14 -85 -14 -101 -1 -101 6 0 10 7 10 15 0 8 9 15 20 15
11 0 20 -7 20 -15 0 -8 7 -15 15 -15 8 0 13 6 10 13 -2 6 -9 45 -15 85 -10 58
-15 72 -29 72 -14 0 -20 -14 -30 -69z m39 -21 c0 -16 -4 -30 -10 -30 -5 0 -10
14 -10 30 0 17 5 30 10 30 6 0 10 -13 10 -30z"/>
<path d="M6511 2006 c-7 -9 -11 -41 -9 -83 3 -66 4 -68 30 -71 22 -3 30 2 38
23 13 34 13 35 -5 35 -9 0 -15 -9 -15 -21 0 -12 -5 -19 -12 -17 -17 6 -23 107
-8 122 8 8 12 4 16 -12 6 -22 19 -29 27 -14 3 4 1 17 -4 30 -9 25 -40 29 -58
8z"/>
<path d="M6590 1935 c0 -69 3 -85 15 -85 12 0 15 16 15 85 0 69 -3 85 -15 85
-12 0 -15 -16 -15 -85z"/>
<path d="M6651 2006 c-7 -9 -11 -41 -9 -83 3 -64 5 -68 27 -71 15 -3 30 3 38
14 16 21 17 107 3 135 -12 22 -43 25 -59 5z m39 -77 c0 -44 -3 -60 -12 -57
-14 5 -23 90 -14 115 12 31 26 -1 26 -58z"/>
<path d="M6740 1935 c0 -50 4 -85 10 -85 6 0 10 24 11 53 l1 52 15 -52 c25
-84 43 -70 43 32 0 90 -17 118 -22 38 l-4 -48 -13 48 c-8 27 -19 47 -27 47
-11 0 -14 -19 -14 -85z"/>
<path d="M6880 1934 l0 -85 33 3 32 3 3 74 c3 79 -3 91 -45 91 -22 0 -23 -3
-23 -86z m48 -1 c-4 -81 -28 -85 -28 -4 0 48 3 61 15 61 13 0 15 -11 13 -57z"/>
<path d="M6970 1935 l0 -85 35 0 c19 0 35 5 35 10 0 6 -9 10 -20 10 -15 0 -20
7 -20 25 0 16 6 25 15 25 8 0 15 7 15 15 0 8 -7 15 -15 15 -8 0 -15 9 -15 20
0 13 7 20 20 20 11 0 20 7 20 15 0 10 -11 15 -35 15 l-35 0 0 -85z"/>
<path d="M7060 1936 l0 -86 35 0 c19 0 35 5 35 10 0 6 -9 10 -20 10 -17 0 -19
8 -22 72 -2 46 -7 73 -15 76 -10 3 -13 -18 -13 -82z"/>
<path d="M7186 1973 c8 -27 18 -65 21 -85 7 -44 23 -51 23 -10 0 16 7 52 16
81 8 29 13 56 9 59 -8 8 -25 -18 -25 -40 0 -33 -18 -27 -24 7 -4 20 -13 35
-21 35 -12 0 -12 -7 1 -47z"/>
<path d="M7280 2001 c-14 -28 -13 -114 3 -135 8 -11 23 -17 38 -14 22 3 24 7
27 71 3 73 -7 97 -39 97 -10 0 -23 -9 -29 -19z m48 -71 c-4 -78 -28 -80 -28
-2 0 32 3 62 7 66 15 14 24 -14 21 -64z"/>
<path d="M7381 2006 c-7 -9 -11 -41 -9 -83 3 -66 4 -68 30 -71 22 -3 30 2 38
23 16 42 12 65 -9 65 -17 0 -19 -5 -14 -36 5 -29 3 -36 -8 -32 -17 6 -25 106
-9 122 8 8 12 4 16 -12 6 -22 19 -29 27 -14 3 4 1 17 -4 30 -9 25 -40 29 -58
8z"/>
<path d="M7471 1951 c-14 -85 -14 -101 -1 -101 6 0 10 7 10 15 0 8 9 15 20 15
11 0 20 -7 20 -15 0 -8 7 -15 15 -15 8 0 13 6 10 13 -2 6 -9 45 -15 85 -10 58
-15 72 -29 72 -14 0 -20 -14 -30 -69z m39 -21 c0 -16 -4 -30 -10 -30 -5 0 -10
14 -10 30 0 17 5 30 10 30 6 0 10 -13 10 -30z"/>
<path d="M7612 2011 c-9 -5 -12 -29 -10 -82 l3 -74 30 0 c25 0 30 4 33 28 4
32 -13 37 -21 6 -10 -38 -27 -9 -27 46 0 55 17 84 27 46 7 -26 23 -28 23 -3 0
33 -30 51 -58 33z"/>
<path d="M7690 1936 l0 -86 35 0 c19 0 35 5 35 10 0 6 -9 10 -20 10 -17 0 -19
8 -22 72 -2 46 -7 73 -15 76 -10 3 -13 -18 -13 -82z"/>
<path d="M7781 1951 c-14 -85 -14 -101 -1 -101 6 0 10 7 10 15 0 8 9 15 20 15
11 0 20 -7 20 -15 0 -8 7 -15 15 -15 8 0 13 6 10 13 -2 6 -9 45 -15 85 -10 58
-15 72 -29 72 -14 0 -20 -14 -30 -69z m39 -21 c0 -16 -4 -30 -10 -30 -5 0 -10
14 -10 30 0 17 5 30 10 30 6 0 10 -13 10 -30z"/>
<path d="M7883 2013 c-21 -8 -15 -53 12 -85 14 -16 25 -33 25 -38 0 -17 -20
-21 -26 -6 -9 24 -26 19 -22 -6 2 -18 10 -23 33 -23 25 0 30 4 33 28 2 18 -5
38 -22 58 -14 17 -26 34 -26 39 0 17 20 21 26 6 8 -22 24 -20 24 3 0 25 -27
37 -57 24z"/>
<path d="M7960 1936 c0 -71 3 -86 15 -86 13 0 15 14 13 82 -2 54 -7 83 -15 86
-10 3 -13 -18 -13 -82z"/>
<path d="M8010 2001 c-5 -11 -10 -41 -10 -66 0 -25 5 -55 10 -66 19 -34 70
-18 70 23 0 24 -16 23 -23 -2 -11 -42 -27 -19 -27 39 0 60 16 92 27 52 7 -26
23 -28 23 -3 0 41 -51 57 -70 23z"/>
<path d="M8112 2011 c-9 -5 -12 -29 -10 -82 l3 -74 30 0 30 0 3 74 c3 73 -4
91 -33 91 -5 0 -16 -4 -23 -9z m36 -80 c-2 -28 -7 -52 -13 -54 -11 -2 -19 87
-10 111 11 31 26 -5 23 -57z"/>
<path d="M6350 1421 c-5 -11 -10 -41 -10 -66 0 -25 5 -55 10 -66 12 -21 40
-25 58 -7 17 17 16 78 -2 78 -9 0 -13 -10 -12 -31 0 -18 -5 -34 -11 -36 -10
-3 -13 12 -13 56 0 60 16 92 27 52 7 -26 23 -28 23 -3 0 41 -51 57 -70 23z"/>
<path d="M6440 1355 c0 -69 3 -85 15 -85 10 0 15 11 15 35 0 19 5 35 10 35 6
0 10 -16 10 -35 0 -24 5 -35 15 -35 18 0 21 60 4 77 -8 8 -8 13 0 17 15 9 14
49 -1 64 -7 7 -25 12 -40 12 l-28 0 0 -85z m50 30 c0 -14 -4 -25 -10 -25 -5 0
-10 11 -10 25 0 14 5 25 10 25 6 0 10 -11 10 -25z"/>
<path d="M6537 1433 c-10 -10 -8 -108 3 -137 11 -30 54 -36 64 -10 10 25 7
154 -4 154 -5 0 -10 -32 -12 -72 -2 -46 -7 -73 -15 -76 -10 -3 -13 16 -13 72
0 70 -6 87 -23 69z"/>
<path d="M6630 1355 c0 -69 3 -85 15 -85 10 0 15 10 15 30 0 17 4 30 9 30 18
0 41 31 41 55 0 30 -25 55 -56 55 -24 0 -24 -2 -24 -85z m50 30 c0 -14 -4 -25
-10 -25 -5 0 -10 11 -10 25 0 14 5 25 10 25 6 0 10 -11 10 -25z"/>
<path d="M6731 1426 c-19 -23 -10 -136 12 -150 33 -21 52 4 55 73 3 66 -7 91
-38 91 -10 0 -23 -6 -29 -14z m39 -71 c0 -37 -4 -65 -10 -65 -6 0 -10 28 -10
65 0 37 4 65 10 65 6 0 10 -28 10 -65z"/>
<path d="M6821 1418 c-9 -25 0 -50 31 -85 11 -12 17 -26 13 -32 -9 -16 -25
-13 -25 4 0 8 -7 15 -15 15 -18 0 -18 -5 -5 -31 13 -23 55 -25 64 -3 11 27 7
42 -20 73 -17 20 -24 37 -19 49 6 16 7 16 21 -2 17 -23 33 -12 18 12 -17 27
-53 27 -63 0z"/>
<path d="M6940 1355 c0 -69 3 -85 15 -85 10 0 15 11 15 35 0 19 4 35 9 35 11
0 21 -25 21 -51 0 -10 4 -19 9 -19 13 0 12 142 -1 158 -6 6 -23 12 -39 12
l-29 0 0 -85z m54 46 c8 -12 -3 -41 -15 -41 -5 0 -9 11 -9 25 0 25 14 34 24
16z"/>
<path d="M7040 1355 l0 -85 35 0 c19 0 35 5 35 10 0 6 -9 10 -20 10 -15 0 -20
7 -20 25 0 16 6 25 15 25 8 0 15 7 15 15 0 8 -7 15 -15 15 -8 0 -15 9 -15 20
0 13 7 20 20 20 11 0 20 7 20 15 0 10 -11 15 -35 15 l-35 0 0 -85z"/>
<path d="M7130 1355 l0 -85 30 0 c37 0 50 23 50 89 0 56 -17 81 -56 81 -24 0
-24 -2 -24 -85z m48 0 c-2 -30 -7 -55 -13 -55 -5 0 -11 25 -13 55 -2 45 0 55
13 55 13 0 15 -10 13 -55z"/>
<path d="M7227 1433 c-10 -10 -8 -108 3 -137 11 -30 54 -36 64 -10 10 25 7
154 -4 154 -5 0 -10 -32 -12 -72 -2 -46 -7 -73 -15 -76 -10 -3 -13 16 -13 72
0 70 -6 87 -23 69z"/>
<path d="M7331 1426 c-19 -23 -10 -136 12 -150 12 -8 22 -8 35 0 23 15 29 54
8 54 -9 0 -16 -8 -16 -20 0 -11 -4 -20 -10 -20 -6 0 -10 28 -10 65 0 63 12 86
23 45 5 -21 27 -28 27 -9 0 41 -45 64 -69 35z"/>
<path d="M7420 1355 c0 -50 4 -85 10 -85 6 0 10 35 10 85 0 50 -4 85 -10 85
-6 0 -10 -35 -10 -85z"/>
<path d="M7460 1355 l0 -85 28 0 c42 0 52 17 52 85 0 68 -10 85 -52 85 l-28 0
0 -85z m58 15 c4 -40 -5 -80 -18 -80 -6 0 -10 27 -10 61 0 44 3 60 13 57 6 -3
13 -19 15 -38z"/>
<path d="M7572 1431 c-9 -5 -12 -29 -10 -82 l3 -74 30 0 30 0 3 74 c3 73 -4
91 -33 91 -5 0 -16 -4 -23 -9z m36 -80 c-2 -28 -7 -52 -13 -54 -11 -2 -19 87
-10 111 11 31 26 -5 23 -57z"/>
<path d="M7662 1428 c-19 -19 -14 -53 13 -78 25 -23 34 -60 15 -60 -5 0 -13 8
-19 17 -12 23 -25 11 -16 -16 9 -28 51 -28 66 0 9 18 6 28 -21 66 -23 32 -29
48 -22 55 8 8 13 7 18 -5 9 -25 26 -21 22 6 -3 25 -36 35 -56 15z"/>
<path d="M5061 1347 c-19 -38 -60 -98 -91 -135 -53 -63 -59 -68 -115 -78 -33
-7 -91 -15 -128 -19 l-68 -7 6 -29 c6 -28 5 -29 -32 -30 -21 0 -56 -4 -78 -8
-50 -10 -31 -19 50 -25 l60 -4 -1 -216 -2 -216 25 0 c21 0 24 4 20 20 -3 12 8
58 24 103 20 59 29 101 29 149 0 37 3 69 8 71 4 3 43 -6 87 -20 47 -15 117
-27 170 -30 71 -4 109 -12 178 -40 170 -67 245 -82 432 -87 147 -4 237 -21
368 -70 36 -14 68 -22 71 -17 3 5 8 33 11 62 l6 54 -58 37 c-32 20 -85 50
-118 65 -55 26 -70 28 -175 28 l-115 0 -60 41 c-33 22 -79 51 -103 64 -43 24
-47 32 -56 108 -5 51 -43 110 -97 153 -36 28 -40 29 -81 19 -24 -7 -85 -36
-137 -66 -52 -29 -97 -51 -100 -48 -3 3 0 9 8 13 7 5 13 11 12 14 0 4 20 49
45 102 52 110 56 144 5 42z"/>
<path d="M4570 659 c0 -16 4 -28 9 -25 8 5 3 56 -5 56 -2 0 -4 -14 -4 -31z"/>
<path d="M4551 454 c0 -11 3 -14 6 -6 3 7 2 16 -1 19 -3 4 -6 -2 -5 -13z"/>
<path d="M4581 444 c0 -11 3 -14 6 -6 3 7 2 16 -1 19 -3 4 -6 -2 -5 -13z"/>
</g>
</svg>
